<svg width="1440" height="514" xmlns="http://www.w3.org/2000/svg">
  <g fill="#9C0909" fill-rule="evenodd">
    <path d="M419.424 468.154c10.117-18.5 31.671-46.693 47.507-60.789-80.939-31.275-131.965-95.588-160.558-175.32h149.561V165.53H287.018c3.52-38.764 3.96-77.528 4.4-114.09h-70.382c-.44 36.562 0 75.326-3.08 114.09H61.799v66.516h145.601C189.804 303.848 149.335 369.923 53 413.532c18.915 14.096 38.27 37.002 48.387 54.622 86.657-43.169 133.285-104.398 158.359-172.235 33.87 77.968 82.258 136.555 159.678 172.235zm203.422 1.762v-177.08c7.038 15.857 13.636 30.834 18.035 42.287l32.11-45.37-.217-.343c-7.442-11.637-38.17-59.29-49.928-75.425V199.45h38.27v-11.453c5.718 9.69 11.437 19.822 14.956 28.192 15.836-9.25 31.231-20.704 45.308-33.038v21.585h135.044v-22.906c14.077 11.893 28.153 22.465 41.79 30.394 9.677-18.941 23.313-41.847 35.63-56.824-44.428-19.382-87.537-61.23-118.329-103.958H757.01c-18.915 32.597-55.865 74.885-95.894 101.315v-12.334h-38.27V51.44H565.22v88.98h-48.827v59.028h44.428c-10.557 48.455-31.232 103.958-55.425 137.436 8.797 14.977 21.994 39.645 27.272 56.825 12.317-18.06 22.874-41.407 32.552-67.837v144.043h57.625zM828.712 156.28h-78.74c14.956-15.858 28.153-32.157 38.27-47.134 10.557 14.537 24.634 31.276 40.47 47.134zm-44.429 171.355V219.712H672.992v107.923h111.291zm127.567 0V219.712H797.48v107.923h114.37zm-175.514-41.848H718.74V261.56h17.596v24.228zm126.687 0h-18.916V261.56h18.916v24.228zM676.95 473c21.115-11.453 38.27-27.752 52.347-47.574 8.357 8.81 15.396 17.62 19.794 24.668l20.675-20.704c10.557 9.691 26.833 29.073 32.991 40.086 18.476-10.572 33.871-24.668 45.748-42.288 17.156 15.417 33.871 31.275 43.109 43.169l40.47-41.848c-12.757-14.536-37.39-34.359-59.385-51.538 3.519-11.013 6.598-22.906 8.798-35.24l-56.306-10.572c-6.158 40.966-20.674 71.801-47.947 90.743l8.798-8.81c-7.038-9.691-20.235-22.466-32.992-33.478 3.96-11.894 7.478-23.787 10.558-37.002l-57.625-11.894c-8.358 46.693-29.033 81.493-65.103 99.994 11.437 9.69 29.472 30.835 36.07 42.288zm455.476-198.225c86.657-21.145 98.974-63.873 101.174-137.437h16.275v64.754c0 46.693 9.238 62.992 54.986 62.992h30.792c32.551 0 46.628-13.656 52.346-62.111-15.396-3.524-39.15-12.334-49.707-20.704-1.32 27.752-3.08 32.157-9.677 32.157h-13.197c-6.09 0-7.018-.862-7.038-12.382v-64.706h15.836V173.9h58.064V84.919H1275.83V51h-62.024v33.919h-107.332v88.98h54.986v-36.56h14.956c-1.32 52.419-6.599 77.527-73.461 91.623 10.997 11.013 25.073 32.157 29.472 45.813zM988.585 470.357c29.032 0 49.267-2.203 64.223-12.334 14.956-9.691 19.355-25.99 19.355-53.741V296.8a2478.061 2478.061 0 0140.91-15.418l-10.998-56.384-29.912 10.131v-44.49h31.232v-58.587h-31.232V51.881h-58.505v80.171H972.31v58.587h41.35v63.872c-18.036 5.727-34.751 10.573-48.828 14.537l14.956 60.79 33.871-11.894v86.338c0 5.726-1.76 7.048-7.038 7.048-5.278.44-19.794.44-33.87-.44 7.477 17.179 14.515 43.609 15.835 59.467zm396.336-12.775v-57.705H1274.51v-60.79h87.097v-57.264h-234.019v57.265h84.018v60.789h-108.211v57.705h281.526z"/>
  </g>
</svg>
