<?xml version="1.0" encoding="UTF-8"?>
<svg width="589px" height="1536px" viewBox="0 0 589 1536" version="1.1" xmlns="http://www.w3.org/2000/svg" xmlns:xlink="http://www.w3.org/1999/xlink">
    <title>Artboard</title>
    <g id="Artboard" stroke="none" stroke-width="1" fill="none" fill-rule="evenodd">
        <path d="M453.78,495.02 C463.9,476.54 485.46,448.38 501.3,434.3 C420.34,403.06 369.3,338.82 340.7,259.18 L490.3,259.18 L490.3,192.74 L321.34,192.74 C324.86,154.02 325.3,115.3 325.74,78.78 L255.34,78.78 C254.9,115.3 255.34,154.02 252.26,192.74 L96.06,192.74 L96.06,259.18 L241.7,259.18 C224.1,330.9 183.62,396.9 87.26,440.46 C106.18,454.54 125.54,477.42 135.66,495.02 C222.34,451.9 268.98,390.74 294.06,322.98 C327.94,400.86 376.34,459.38 453.78,495.02 Z M197.7,976.78 L197.7,799.9 C204.74,815.74 211.34,830.7 215.74,842.14 L247.86,796.82 L247.641584,796.47885 C240.197136,784.855212 209.4612,737.2572 197.7,721.14 L197.7,706.62 L235.98,706.62 L235.98,695.18 C241.7,704.86 247.42,714.98 250.94,723.34 C266.78,714.1 282.18,702.66 296.26,690.34 L296.26,711.9 L431.34,711.9 L431.34,689.02 C445.42,700.9 459.5,711.46 473.14,719.38 C482.82,700.46 496.46,677.58 508.78,662.62 C464.34,643.26 421.22,601.46 390.42,558.78 L331.9,558.78 C312.98,591.34 276.02,633.58 235.98,659.98 L235.98,647.66 L197.7,647.66 L197.7,558.78 L140.06,558.78 L140.06,647.66 L91.22,647.66 L91.22,706.62 L135.66,706.62 C125.1,755.02 104.42,810.46 80.22,843.9 C89.02,858.86 102.22,883.5 107.5,900.66 C119.82,882.62 130.38,859.3 140.06,832.9 L140.06,976.78 L197.7,976.78 Z M403.62,663.5 L324.86,663.5 C339.82,647.66 353.02,631.38 363.14,616.42 C373.7,630.94 387.78,647.66 403.62,663.5 Z M359.18,834.66 L359.18,726.86 L247.86,726.86 L247.86,796.82 L247.86,834.66 L359.18,834.66 Z M486.78,834.66 L486.78,726.86 L372.38,726.86 L372.38,834.66 L486.78,834.66 Z M311.22,792.86 L293.62,792.86 L293.62,768.66 L311.22,768.66 L311.22,792.86 Z M437.94,792.86 L419.02,792.86 L419.02,768.66 L437.94,768.66 L437.94,792.86 Z M251.82,979.86 C272.94,968.42 290.1,952.14 304.18,932.34 C312.54,941.14 319.58,949.94 323.98,956.98 L344.66,936.3 C355.22,945.98 371.5,965.34 377.66,976.34 C396.14,965.78 411.54,951.7 423.42,934.1 L424.978592,935.50109 C441.586465,950.456364 457.58,965.7 466.54,977.22 L507.02,935.42 C494.26,920.9 469.62,901.1 447.62,883.94 C451.14,872.94 454.22,861.06 456.42,848.74 L400.1,838.18 C393.94,879.1 379.42,909.9 352.14,928.82 L360.94,920.02 C353.9,910.34 340.7,897.58 327.94,886.58 C331.9,874.7 335.42,862.82 338.5,849.62 L280.86,837.74 C272.5,884.38 251.82,919.14 215.74,937.62 C227.18,947.3 245.22,968.42 251.82,979.86 Z M247.86,1261.86 C334.54,1240.74 346.86,1198.06 349.06,1124.58 L365.34,1124.58 L365.34,1189.26 C365.34,1235.9 374.58,1252.18 420.34,1252.18 L451.14,1252.18 C483.7,1252.18 497.78,1238.54 503.5,1190.14 C488.1,1186.62 464.34,1177.82 453.78,1169.46 C452.46,1197.18 450.7,1201.58 444.1,1201.58 L430.9,1201.58 C424.808444,1201.58 423.880207,1200.71945 423.860332,1189.21194 L423.86,1124.58 L439.7,1124.58 L439.7,1161.1 L497.78,1161.1 L497.78,1072.22 L391.3,1072.22 L391.3,1038.34 L329.26,1038.34 L329.26,1072.22 L221.9,1072.22 L221.9,1161.1 L276.9,1161.1 L276.9,1124.58 L291.86,1124.58 C290.54,1176.94 285.26,1202.02 218.38,1216.1 C229.38,1227.1 243.46,1248.22 247.86,1261.86 Z M103.98,1457.22 C133.02,1457.22 153.26,1455.02 168.22,1444.9 C183.18,1435.22 187.58,1418.94 187.58,1391.22 L187.58,1283.86 C201.22,1278.58 215.3,1273.3 228.5,1268.46 L217.5,1212.14 L187.58,1222.26 L187.58,1177.82 L218.82,1177.82 L218.82,1119.3 L187.58,1119.3 L187.58,1039.22 L129.06,1039.22 L129.06,1119.3 L87.7,1119.3 L87.7,1177.82 L129.06,1177.82 L129.06,1241.62 C111.02,1247.34 94.3,1252.18 80.22,1256.14 L95.18,1316.86 L129.06,1304.98 L129.06,1391.22 C129.06,1396.94 127.3,1398.26 122.02,1398.26 C116.74,1398.7 102.22,1398.7 88.14,1397.82 C95.62,1414.98 102.66,1441.38 103.98,1457.22 Z M500.42,1444.46 L500.42,1386.82 L389.98,1386.82 L389.98,1326.1 L477.1,1326.1 L477.1,1268.9 L243.02,1268.9 L243.02,1326.1 L327.06,1326.1 L327.06,1386.82 L218.82,1386.82 L218.82,1444.46 L500.42,1444.46 Z" id="大檢控" fill="#9C0909" fill-rule="nonzero"></path>
    </g>
</svg>